<svg width="158" height="75" viewBox="0 0 158 75" fill="none" xmlns="http://www.w3.org/2000/svg">
<path d="M76.1477 27.6476C75.5423 27.1006 74.4426 27.1076 73.6495 27.6518C73.4589 27.7826 73.1741 27.7805 73.0272 27.6462C72.8816 27.5147 72.9245 27.2967 73.1151 27.1666C73.307 27.0345 73.5791 27.0345 73.7317 27.173C74.0903 26.9227 74.4461 26.6709 74.8012 26.4178C74.3005 25.9615 73.4927 25.8813 72.786 26.1464C72.6855 26.0543 72.5849 25.9636 72.4837 25.8701C72.163 26.093 71.841 26.3138 71.5183 26.5331C71.6245 26.6295 71.732 26.7272 71.8403 26.8235C71.4599 27.3263 71.462 27.938 71.9296 28.3613C72.1905 28.5982 72.5406 28.7381 72.9302 28.7789C73.4505 28.8352 74.0277 28.7114 74.4777 28.4013C74.669 28.2713 74.9418 28.2713 75.088 28.4041C75.235 28.5377 75.2041 28.7564 75.0128 28.8879C74.8223 29.0194 74.5368 29.0166 74.3898 28.8851C74.0291 29.1277 73.6663 29.3688 73.3007 29.6072C73.7648 30.0277 74.5537 30.1345 75.2448 29.9145C75.37 30.0277 75.493 30.1423 75.6189 30.2548C75.943 30.0361 76.2644 29.8167 76.5843 29.5938C76.4628 29.4865 76.3428 29.3775 76.2243 29.2669C76.6476 28.7452 76.6293 28.0877 76.1477 27.6476V27.6476ZM88.3209 15.3042C88.7786 15.3042 89.2574 15.087 89.597 14.677C89.7419 14.5034 89.976 14.4703 90.1223 14.6032C90.2699 14.7361 90.277 14.9892 90.1328 15.1629C89.988 15.3373 89.7419 15.3696 89.5956 15.2374C89.3214 15.5616 89.0451 15.8829 88.7673 16.2021C89.2307 16.6233 89.9275 16.6437 90.4879 16.3048L90.8627 16.6444C91.1087 16.354 91.3513 16.0629 91.5918 15.769L91.2325 15.4434C91.5145 14.7952 91.3963 14.0477 90.9161 13.6097C90.3093 13.0613 89.3671 13.2089 88.7695 13.9261C88.6246 14.1005 88.3785 14.1328 88.2323 14.0006C88.0853 13.867 88.0909 13.6139 88.2337 13.4402C88.3806 13.2673 88.6134 13.2321 88.7652 13.3692C89.0359 13.0416 89.3038 12.7097 89.5675 12.3771C89.0655 11.9215 88.3616 11.9299 87.7949 12.3216L87.4905 12.0459C87.2507 12.3399 87.0067 12.6316 86.7613 12.9213C86.8689 13.0184 86.9765 13.1168 87.0834 13.2124C86.8337 13.8347 86.9266 14.5322 87.3955 14.9555C87.6571 15.1938 87.9784 15.3099 88.3209 15.3042Z" fill="#ADDF66"/>
<path d="M99.9737 22.2841C100.532 21.6061 101.073 20.913 101.594 20.2057C101.375 18.4535 101.135 16.683 100.872 14.9006L100.782 14.8191L101.113 14.3339L100.283 13.5802C96.1818 9.85711 92.0819 6.13477 87.9805 2.41312L86.8717 1.40625L86.0294 2.64164C84.5942 4.73672 83.0435 6.75031 81.3845 8.67305C81.4752 8.28773 81.5744 7.89047 81.6827 7.47773C82.1263 5.79375 81.6067 4.65047 81.092 3.98883C80.1337 2.75484 78.3196 2.07422 75.9817 2.07422C69.3527 2.07422 59.762 7.28719 59.762 16.7126C59.762 18.0063 60.6241 18.9105 61.8573 18.9105C62.7679 18.9105 63.8198 18.4015 65.001 17.3925C65.1121 17.7743 65.2795 18.135 65.5241 18.4416C65.9924 19.0294 66.6829 19.3535 67.469 19.3535C67.6455 19.3535 67.8269 19.338 68.0132 19.3057C68.0969 19.7114 68.2502 20.1129 68.4948 20.463C66.2084 22.111 63.8319 23.6302 61.3764 25.0137L59.8162 25.8891L61.0614 27.0197C60.8069 27.1772 60.5516 27.3354 60.2978 27.4887C60.0166 28.788 59.7191 30.0705 59.4062 31.3298C63.9098 35.4192 68.4126 39.5051 72.9154 43.5938C76.8358 41.461 80.6286 39.1015 84.2744 36.5273C84.2758 36.5295 84.2758 36.5323 84.2772 36.5337C84.6161 37.1222 85.1688 37.5244 85.9246 37.7388C84.6161 39.2498 84.1457 40.5443 84.5254 41.6011C84.8284 42.4427 85.6082 42.9455 86.6123 42.9455C96.0946 42.9455 101.339 33.4125 101.339 26.8228C101.339 25.2513 101.026 23.8971 100.434 22.9078C100.299 22.6868 100.145 22.4781 99.9737 22.2841V22.2841ZM80.8698 11.2085C83.1346 8.73 85.2278 6.11789 87.1037 3.36586C91.2051 7.0882 95.3057 10.8098 99.4063 14.5336C97.7043 17.0187 95.8447 19.3922 93.839 21.6394C93.1893 21.7765 92.5755 21.8953 92.013 21.9867C93.7694 20.0939 95.4337 18.1287 96.9616 16.0692L96.5516 15.6973C96.0981 15.2859 96.0327 14.5498 96.392 14.0477C96.5003 13.8945 96.6093 13.7433 96.7176 13.5914C93.9831 11.1108 91.2494 8.62805 88.517 6.14742L88.1915 6.60375C87.8315 7.10438 87.1614 7.17398 86.71 6.76266L86.2994 6.39211C84.5556 8.74195 82.6438 10.9765 80.6062 13.1084C80.6673 12.536 80.7524 11.9053 80.8698 11.2085ZM85.8234 18.1012C84.3883 16.7977 82.3788 16.503 80.5809 17.0951C80.5267 16.7414 80.4487 15.9996 80.4845 14.8324C82.6295 12.6754 84.6351 10.3843 86.4892 7.97273C87.1874 8.33484 88.0178 8.25398 88.6309 7.75336L95.2952 13.8023C94.9816 14.5744 95.0575 15.48 95.5103 16.1634C93.8931 18.2749 92.1381 20.2894 90.2805 22.2209C89.5013 22.3076 88.7181 22.3534 87.9341 22.358C87.7098 22.358 87.5116 22.3523 87.3266 22.3446C87.5791 20.8315 87.0609 19.2241 85.8234 18.1012V18.1012ZM67.6202 18.0471C67.5709 18.0513 67.5161 18.0619 67.4697 18.0619C65.8982 18.0619 66.0522 15.8098 66.2188 14.7192C67.0858 13.8558 67.9014 12.9544 68.7529 12.1022C69.6515 11.1867 70.5958 10.3205 71.6582 9.63C72.7199 8.94516 73.9258 8.4593 75.2329 8.33836C73.9272 8.20336 72.5624 8.54367 71.3987 9.19617C70.2203 9.83672 69.2141 10.7241 68.2888 11.6508C67.3698 12.5873 66.5268 13.5773 65.6774 14.5512C64.8217 15.5123 63.9752 16.477 62.9423 17.2716C62.5084 17.5092 62.1442 17.6182 61.8566 17.6182C61.3328 17.6182 61.06 17.2652 61.06 16.7119C61.06 7.8968 70.2196 3.36516 75.9803 3.36516C79.0038 3.36516 81.092 4.61531 80.4227 7.15078C78.4834 14.5181 79.375 17.6955 79.375 17.6955C78.6156 19.1123 77.1517 19.5729 77.1517 19.5729C76.354 19.3578 75.5311 19.2502 74.7048 19.253C73.0497 19.253 71.879 19.6636 71.879 19.6636C71.2602 20.0137 70.7821 20.1551 70.413 20.1551C69.077 20.1551 69.1783 18.2932 69.2528 17.6484C69.4293 17.5655 69.6009 17.4755 69.7661 17.3784C70.4284 16.9973 71.0134 16.5192 71.5844 16.0509C72.1483 15.5742 72.6967 15.0982 73.2775 14.6798C73.8604 14.2678 74.4876 13.9247 75.2315 13.7869C75.0434 13.7534 74.8521 13.7409 74.6612 13.7496C74.0875 13.7756 73.5116 13.9781 73.0103 14.2502C72.3276 14.6109 71.7377 15.0877 71.1653 15.5566C70.6007 16.0369 70.0537 16.5178 69.4841 16.9601C68.9167 17.396 68.3184 17.7827 67.6202 18.0471ZM81.8535 32.4668C79.4368 34.2233 76.9208 35.8389 74.3181 37.3057C70.2175 33.582 66.1176 29.8624 62.0162 26.138C64.6248 24.6683 67.1462 23.0491 69.5678 21.2885C69.8315 21.3863 70.1134 21.4481 70.4137 21.4481C70.7216 21.4481 71.0444 21.3947 71.3847 21.2906C69.4404 22.7601 67.4262 24.1347 65.3491 25.4095C65.4855 25.534 65.6233 25.6584 65.759 25.7836C66.2104 26.1935 66.1352 26.8003 65.5839 27.1259C65.4152 27.2243 65.2478 27.3234 65.0805 27.4205L73.2817 34.8659C73.4505 34.7674 73.6171 34.6704 73.7852 34.5691C74.3371 34.2443 75.1492 34.3048 75.6013 34.7147L76.0112 35.0887C78.1513 33.773 80.2246 32.3517 82.2234 30.8299C81.9562 31.4227 81.8338 31.9697 81.8535 32.4668V32.4668ZM82.6923 29.0953C80.5839 30.7676 78.3885 32.3272 76.1153 33.7676C75.3616 33.3577 74.3631 33.2895 73.5159 33.5749L66.8509 27.5259C67.4008 26.9698 67.4901 26.2146 67.0928 25.5804C69.5238 24.0424 71.8663 22.3689 74.1093 20.5678C74.2991 20.5545 74.496 20.5453 74.7055 20.5453C75.4158 20.5429 76.1233 20.6349 76.8093 20.8188L76.9295 20.8519C76.5836 22.3073 76.9977 23.8416 78.2486 24.9771C79.3975 26.0191 81.0055 26.4973 82.5651 26.3763C82.7908 27.4078 82.7781 28.3627 82.6923 29.0953V29.0953ZM86.6116 41.6538C85.7474 41.6538 85.3776 40.9957 86.0582 39.7709C86.8562 38.7506 87.823 37.9111 88.7856 37.0652C89.7651 36.2215 90.7607 35.382 91.7036 34.4693C92.6345 33.5496 93.5282 32.5505 94.1723 31.3784C94.8283 30.2217 95.1714 28.8647 95.0357 27.5667C94.9134 28.8661 94.4261 30.0656 93.7363 31.1217C93.0416 32.1771 92.1698 33.1158 91.2494 34.0095C90.3923 34.8546 89.4859 35.6653 88.6183 36.5266C88.2836 36.5773 87.842 36.6265 87.3878 36.6265C86.3099 36.6265 85.1723 36.3459 85.2644 35.1471C85.5302 34.4468 85.9218 33.8477 86.362 33.2789C86.807 32.7129 87.2908 32.1694 87.7738 31.6083C88.2463 31.0387 88.7259 30.4523 89.088 29.7745C89.4522 29.1101 89.6934 28.3141 89.5541 27.5667C89.4163 28.3064 89.0711 28.9301 88.657 29.5095C88.2365 30.0867 87.7577 30.6323 87.2767 31.1934C86.8063 31.7616 86.3247 32.343 85.9422 33.0012C85.8436 33.1665 85.7533 33.3367 85.6715 33.5109C85.4562 33.5351 85.2398 33.5478 85.0232 33.5489C83.9249 33.5489 82.3302 33.198 83.6437 30.8995C83.6437 30.8995 84.5085 28.4618 83.7351 25.6584C83.7351 25.6584 84.1977 24.203 85.6223 23.4478C85.6223 23.4478 86.3556 23.651 87.9341 23.651C89.6512 23.651 92.3688 23.4105 96.231 22.4058C96.5266 22.3261 96.8312 22.2843 97.1373 22.2813C103.316 22.2813 99.5455 41.6538 86.6116 41.6538" fill="#ADDF66"/>
<path d="M40.0498 51.6C41.1431 51.6 41.9698 51.9867 42.5298 52.76C43.1031 53.5333 43.3898 54.4267 43.3898 55.44V62H41.5698V55.8C41.5698 54.9333 41.4098 54.3 41.0898 53.9C40.7831 53.4867 40.2631 53.28 39.5298 53.28C38.3831 53.28 37.4231 53.92 36.6498 55.2V62H34.8298V55.8C34.8298 54.9333 34.6764 54.3 34.3698 53.9C34.0631 53.4867 33.5364 53.28 32.7898 53.28C31.6431 53.28 30.6831 53.92 29.9098 55.2V62H28.0898V51.8H29.6898L29.9098 53.08V53.38H29.9498C30.8031 52.1933 31.9231 51.6 33.3098 51.6C34.0564 51.6 34.6898 51.7933 35.2098 52.18C35.7431 52.5667 36.1231 53.0467 36.3498 53.62H36.4098C37.2231 52.2733 38.4364 51.6 40.0498 51.6ZM45.8487 56.9C45.8487 55.3133 46.3153 54.0333 47.2487 53.06C48.182 52.0867 49.4153 51.6 50.9487 51.6C52.4953 51.6 53.7353 52.0867 54.6687 53.06C55.6153 54.0333 56.0887 55.3133 56.0887 56.9C56.0887 58.4867 55.6153 59.7667 54.6687 60.74C53.7353 61.7133 52.4953 62.2 50.9487 62.2C49.4153 62.2 48.182 61.7133 47.2487 60.74C46.3153 59.7667 45.8487 58.4867 45.8487 56.9ZM48.6487 59.64C49.3153 60.24 50.0887 60.54 50.9687 60.54C51.8487 60.54 52.6153 60.24 53.2687 59.64C53.9353 59.0267 54.2687 58.1133 54.2687 56.9C54.2687 55.6733 53.9353 54.76 53.2687 54.16C52.6153 53.56 51.8487 53.26 50.9687 53.26C50.0887 53.26 49.3153 53.56 48.6487 54.16C47.9953 54.76 47.6687 55.6733 47.6687 56.9C47.6687 58.1133 47.9953 59.0267 48.6487 59.64ZM64.1766 51.6C65.2833 51.6 66.1566 51.9733 66.7966 52.72C67.4366 53.4667 67.7566 54.4 67.7566 55.52V62H65.9366V55.72C65.9366 54.0933 65.2033 53.28 63.7366 53.28C62.5766 53.28 61.4833 53.92 60.4566 55.2V62H58.6366V51.8H60.2366L60.4566 53.08V53.38H60.4966C61.5766 52.1933 62.8033 51.6 64.1766 51.6ZM79.7841 56.9V57.54H72.0641C72.1708 58.4733 72.5175 59.2 73.1041 59.72C73.6908 60.24 74.5775 60.5 75.7641 60.5C76.9641 60.5 78.0708 60.1667 79.0841 59.5H79.1841V61.26C78.0641 61.8867 76.7441 62.2 75.2241 62.2C73.7175 62.2 72.5041 61.74 71.5841 60.82C70.6775 59.8867 70.2241 58.6333 70.2241 57.06C70.2241 55.4733 70.6308 54.1667 71.4441 53.14C72.2575 52.1133 73.4441 51.6 75.0041 51.6C76.5641 51.6 77.7508 52.1133 78.5641 53.14C79.3775 54.1667 79.7841 55.42 79.7841 56.9ZM72.0641 56.06H77.9641C77.9108 55.1 77.5841 54.3733 76.9841 53.88C76.3975 53.3867 75.7375 53.14 75.0041 53.14C74.2708 53.14 73.6108 53.3867 73.0241 53.88C72.4375 54.3733 72.1175 55.1 72.0641 56.06ZM91.2304 51.8L85.0904 66.6H83.2504L84.9704 62.16L80.7504 51.8H82.7104L85.9104 59.86H85.9904L89.2704 51.8H91.2304ZM92.7945 62V59.76H95.0345V62H92.7945ZM103.47 53.36H100.57V59.4C100.57 59.96 100.723 60.3067 101.03 60.44C101.283 60.5467 101.61 60.6 102.01 60.6C102.41 60.6 102.85 60.4933 103.33 60.28H103.47V61.76C102.91 62.0533 102.31 62.2 101.67 62.2C99.7231 62.2 98.7498 61.32 98.7498 59.56V53.36H96.8498V53.24L100.57 49.6V51.8H103.47V53.36ZM105.946 52.36C107.106 51.8533 108.346 51.6 109.666 51.6C110.999 51.6 112.019 51.9867 112.726 52.76C113.432 53.5333 113.786 54.46 113.786 55.54V62H112.186L111.966 60.72H111.906C110.946 61.7067 109.712 62.2 108.206 62.2C107.299 62.2 106.526 61.9267 105.886 61.38C105.259 60.8333 104.946 60.0867 104.946 59.14C104.946 58.1933 105.332 57.4267 106.106 56.84C106.892 56.2533 108.039 55.96 109.546 55.96H111.966V55.8C111.966 54.92 111.746 54.2867 111.306 53.9C110.879 53.5133 110.132 53.32 109.066 53.32C107.999 53.32 106.999 53.5467 106.066 54H105.946V52.36ZM111.966 59.1V57.42H109.786C107.772 57.42 106.766 57.9533 106.766 59.02C106.766 60.0733 107.472 60.6 108.886 60.6C109.472 60.6 110.039 60.46 110.586 60.18C111.132 59.8867 111.592 59.5267 111.966 59.1ZM118.839 47.4V62H117.019V47.4H118.839ZM126.752 55.9L131.352 62H129.112L125.512 57.18H125.452L123.972 58.66V62H122.152V47.4H123.972V56.34H124.032L128.452 51.8H130.892L126.752 55.9Z" fill="#ADDF66"/>
</svg>
